<mxfile host="app.diagrams.net" modified="2023-05-23T07:25:41.652Z" agent="Mozilla/5.0 (X11; Linux x86_64) AppleWebKit/537.36 (KHTML, like Gecko) Chrome/113.0.0.0 Safari/537.36" etag="bRONtHwwjKItCbs1-6TJ" version="21.3.2" type="device">
  <diagram name="Page-1" id="k1EHQnGhcW-DM415MSKS">
    <mxGraphModel dx="816" dy="495" grid="1" gridSize="10" guides="1" tooltips="1" connect="1" arrows="1" fold="1" page="1" pageScale="1" pageWidth="827" pageHeight="1169" math="0" shadow="0">
      <root>
        <mxCell id="0" />
        <mxCell id="1" parent="0" />
        <mxCell id="nGSJI6-AJ5bbqnHYBUWW-13" value="" style="edgeStyle=orthogonalEdgeStyle;rounded=0;orthogonalLoop=1;jettySize=auto;html=1;entryX=1.029;entryY=0.369;entryDx=0;entryDy=0;entryPerimeter=0;fillColor=#647687;strokeColor=#314354;" edge="1" parent="1" source="nGSJI6-AJ5bbqnHYBUWW-1" target="nGSJI6-AJ5bbqnHYBUWW-7">
          <mxGeometry relative="1" as="geometry">
            <mxPoint x="720" y="310" as="targetPoint" />
            <Array as="points">
              <mxPoint x="720" y="55" />
              <mxPoint x="720" y="308" />
            </Array>
          </mxGeometry>
        </mxCell>
        <mxCell id="nGSJI6-AJ5bbqnHYBUWW-16" value="LEFT JOIN&lt;br&gt;" style="edgeLabel;html=1;align=center;verticalAlign=middle;resizable=0;points=[];" vertex="1" connectable="0" parent="nGSJI6-AJ5bbqnHYBUWW-13">
          <mxGeometry x="0.2817" y="1" relative="1" as="geometry">
            <mxPoint as="offset" />
          </mxGeometry>
        </mxCell>
        <mxCell id="nGSJI6-AJ5bbqnHYBUWW-1" value="GET_data_from _API&amp;nbsp;" style="rounded=0;whiteSpace=wrap;html=1;fillColor=#f0a30a;fontColor=#000000;strokeColor=#BD7000;" vertex="1" parent="1">
          <mxGeometry x="279" y="40" width="270" height="30" as="geometry" />
        </mxCell>
        <mxCell id="nGSJI6-AJ5bbqnHYBUWW-2" value="" style="verticalLabelPosition=bottom;verticalAlign=top;html=1;strokeWidth=2;shape=mxgraph.arrows2.arrow;dy=0.6;dx=40;notch=0;direction=south;fillColor=#647687;fontColor=#ffffff;strokeColor=#314354;" vertex="1" parent="1">
          <mxGeometry x="403" y="70" width="21" height="70" as="geometry" />
        </mxCell>
        <mxCell id="nGSJI6-AJ5bbqnHYBUWW-3" value="&lt;br&gt;staging_&lt;br&gt;table" style="strokeWidth=2;html=1;shape=mxgraph.flowchart.database;whiteSpace=wrap;fillColor=#6d8764;fontColor=#ffffff;strokeColor=#3A5431;" vertex="1" parent="1">
          <mxGeometry x="384" y="140" width="60" height="60" as="geometry" />
        </mxCell>
        <mxCell id="nGSJI6-AJ5bbqnHYBUWW-4" value="" style="shape=flexArrow;endArrow=classic;html=1;rounded=0;fillColor=#647687;strokeColor=#314354;" edge="1" parent="1">
          <mxGeometry width="50" height="50" relative="1" as="geometry">
            <mxPoint x="400" y="200" as="sourcePoint" />
            <mxPoint x="330" y="260" as="targetPoint" />
          </mxGeometry>
        </mxCell>
        <mxCell id="nGSJI6-AJ5bbqnHYBUWW-5" value="" style="shape=flexArrow;endArrow=classic;html=1;rounded=0;fillColor=#647687;strokeColor=#314354;" edge="1" parent="1">
          <mxGeometry width="50" height="50" relative="1" as="geometry">
            <mxPoint x="430" y="200" as="sourcePoint" />
            <mxPoint x="490" y="260" as="targetPoint" />
          </mxGeometry>
        </mxCell>
        <mxCell id="nGSJI6-AJ5bbqnHYBUWW-6" value="&amp;nbsp;&lt;br&gt;Unique records + old with updated values inserted,&lt;br&gt;and status&amp;amp;time updating&lt;br&gt;&lt;br&gt;Dimesion_Table" style="shape=cylinder3;whiteSpace=wrap;html=1;boundedLbl=1;backgroundOutline=1;size=15;fillColor=#008a00;fontColor=#ffffff;strokeColor=#005700;" vertex="1" parent="1">
          <mxGeometry x="220" y="260" width="140" height="130" as="geometry" />
        </mxCell>
        <mxCell id="nGSJI6-AJ5bbqnHYBUWW-7" value="Unique records inserted and old are updated&lt;br&gt;&lt;br&gt;Final_Table" style="shape=cylinder3;whiteSpace=wrap;html=1;boundedLbl=1;backgroundOutline=1;size=15;fillColor=#008a00;fontColor=#ffffff;strokeColor=#005700;" vertex="1" parent="1">
          <mxGeometry x="450" y="260" width="140" height="130" as="geometry" />
        </mxCell>
      </root>
    </mxGraphModel>
  </diagram>
</mxfile>
